<?xml version="1.0" encoding="UTF-8" standalone="no"?>
<!-- Created with Inkscape (http://www.inkscape.org/) -->

<svg
   xmlns:dc="http://purl.org/dc/elements/1.1/"
   xmlns:cc="http://creativecommons.org/ns#"
   xmlns:rdf="http://www.w3.org/1999/02/22-rdf-syntax-ns#"
   xmlns:svg="http://www.w3.org/2000/svg"
   xmlns="http://www.w3.org/2000/svg"
   xmlns:sodipodi="http://sodipodi.sourceforge.net/DTD/sodipodi-0.dtd"
   xmlns:inkscape="http://www.inkscape.org/namespaces/inkscape"
   width="15.602653"
   height="17.825251"
   id="svg3038"
   version="1.1"
   inkscape:version="0.48.4 r9939"
   sodipodi:docname="Nouveau document 2">
  <defs
     id="defs3040">
    <clipPath
       id="clipPath3427-4"
       clipPathUnits="userSpaceOnUse">
      <path
         inkscape:connector-curvature="0"
         id="path3429-2"
         d="m 354.29,31.514 55.205,0 0,12.705 -55.205,0 0,-12.705 z" />
    </clipPath>
  </defs>
  <sodipodi:namedview
     id="base"
     pagecolor="#ffffff"
     bordercolor="#666666"
     borderopacity="1.0"
     inkscape:pageopacity="0.0"
     inkscape:pageshadow="2"
     inkscape:zoom="31.678384"
     inkscape:cx="9.0723641"
     inkscape:cy="7.2890943"
     inkscape:document-units="px"
     inkscape:current-layer="layer1"
     showgrid="false"
     fit-margin-top="1"
     fit-margin-left="1"
     fit-margin-right="1"
     fit-margin-bottom="1"
     inkscape:window-width="1920"
     inkscape:window-height="1017"
     inkscape:window-x="-8"
     inkscape:window-y="-8"
     inkscape:window-maximized="1" />
  <metadata
     id="metadata3043">
    <rdf:RDF>
      <cc:Work
         rdf:about="">
        <dc:format>image/svg+xml</dc:format>
        <dc:type
           rdf:resource="http://purl.org/dc/dcmitype/StillImage" />
        <dc:title></dc:title>
      </cc:Work>
    </rdf:RDF>
  </metadata>
  <g
     inkscape:label="Calque 1"
     inkscape:groupmode="layer"
     id="layer1"
     transform="translate(-388.18378,-380.62179)">
    <g
       id="g3145">
      <g
         transform="matrix(1.25,0,0,-1.25,395.39678,381.62179)"
         id="g3441">
        <path
           id="path3443"
           style="fill:#555;fill-opacity:1;fill-rule:nonzero;stroke:none"
           d="m 0,0 c 0,0 1.497,-0.992 1.754,-3.72 0,0 0.506,-6.552 -2.884,-7.836 0,0 0.304,-0.056 0.645,-0.041 0,0 4.192,2.644 2.269,7.777 0,0 -0.575,1.791 -1.784,3.82"
           inkscape:connector-curvature="0" />
      </g>
      <g
         transform="matrix(1.25,0,0,-1.25,398.13178,387.21554)"
         id="g3445">
        <path
           id="path3447"
           style="fill:#555;fill-opacity:1;fill-rule:nonzero;stroke:none"
           d="m 0,0 c 0,0 -0.781,1.208 0.211,2.204 0,0 0.347,0.383 1.337,0.635 0,0 0.991,0.211 1.527,1.348 0,0 1.109,-1.55 0.427,-3.59 0,0 -0.338,-0.919 -1.042,-1.338 -0.532,-0.316 -1.338,-0.416 -2.18,0.409 0,0 2.547,1.396 2.643,2.578 C 2.923,2.246 2.14,0.487 0,0"
           inkscape:connector-curvature="0" />
      </g>
      <g
         transform="matrix(1.25,0,0,-1.25,398.13178,387.21554)"
         id="g3449">
        <path
           id="path3451"
           style="fill:#555;fill-opacity:1;fill-rule:nonzero;stroke:none"
           d="m 0,0 c 0,0 -0.781,1.208 0.211,2.204 0,0 0.347,0.383 1.337,0.635 0,0 0.991,0.211 1.527,1.348 0,0 1.109,-1.55 0.427,-3.59 0,0 -0.338,-0.919 -1.042,-1.338 -0.532,-0.316 -1.338,-0.416 -2.18,0.409 0,0 2.547,1.396 2.643,2.578 C 2.923,2.246 2.14,0.487 0,0"
           inkscape:connector-curvature="0" />
      </g>
      <g
         transform="matrix(1.25,0,0,-1.25,398.94378,391.79829)"
         id="g3457">
        <path
           id="path3459"
           style="fill:#555;fill-opacity:1;fill-rule:nonzero;stroke:none"
           d="m 0,0 c 0,-0.628 -0.15,-1.214 -0.45,-1.756 -0.3,-0.543 -0.704,-0.963 -1.215,-1.258 -0.51,-0.295 -1.07,-0.443 -1.68,-0.443 -0.611,0 -1.171,0.148 -1.682,0.443 -0.51,0.295 -0.915,0.715 -1.215,1.258 -0.299,0.542 -0.45,1.128 -0.45,1.756 0,0.974 0.329,1.805 0.986,2.491 0.658,0.687 1.445,1.031 2.361,1.031 0.434,0 0.841,-0.08 1.22,-0.237 0.037,0.397 0.177,0.768 0.331,1.07 -0.476,0.172 -0.991,0.26 -1.547,0.26 -1.324,0 -2.419,-0.487 -3.286,-1.461 -0.788,-0.884 -1.181,-1.927 -1.181,-3.13 0,-1.213 0.416,-2.274 1.248,-3.182 0.832,-0.907 1.905,-1.361 3.219,-1.361 1.306,0 2.376,0.454 3.209,1.361 0.832,0.908 1.248,1.969 1.248,3.182 0,0.65 -0.115,1.251 -0.342,1.807 C 0.392,1.596 0.028,1.473 -0.272,1.41 -0.092,0.98 0,0.51 0,0"
           inkscape:connector-curvature="0" />
      </g>
    </g>
  </g>
</svg>
